<svg width="175" height="148" viewBox="0 0 175 148" fill="none" xmlns="http://www.w3.org/2000/svg">
<path d="M104.851 0.940089C104.97 1.01452 105.089 1.08896 105.212 1.16565C106.203 1.86977 106.84 2.74289 107.173 3.85793C107.284 4.93143 107.232 6.00781 107.173 7.08291C106.133 7.08291 105.094 7.08291 104.022 7.08291C103.981 5.82555 103.981 5.82555 103.973 5.43372C103.936 4.67231 103.808 4.2558 103.193 3.70436C102.588 3.33076 102.137 3.34863 101.437 3.35594C101.312 3.35675 101.187 3.35756 101.058 3.35839C99.6771 3.3809 98.3304 3.55691 96.9674 3.75055C96.6972 3.78749 96.4271 3.82425 96.1569 3.86086C95.4525 3.95674 94.7485 4.05483 94.0445 4.15345C93.3375 4.25212 92.6302 4.34875 91.9229 4.44552C90.9727 4.57569 90.0225 4.70649 89.0724 4.83826C87.6803 5.03134 86.2874 5.21899 84.8936 5.40141C83.8644 5.53651 82.8372 5.68172 81.8101 5.82956C79.4629 6.16724 77.1141 6.468 74.7546 6.72294C73.7877 6.82959 72.8484 6.9528 71.9019 7.16348C71.0805 7.32147 70.2417 7.38461 69.4082 7.46684C66.8732 7.5736 66.8732 7.5736 64.5581 8.31148C64.6029 8.68575 64.6029 8.68575 64.7239 9.07933C65.2389 9.39727 65.3468 9.42487 65.9296 9.42495C66.0749 9.42571 66.2202 9.42648 66.37 9.42727C66.5297 9.42656 66.6895 9.42584 66.8541 9.4251C67.0238 9.42556 67.1934 9.42601 67.3682 9.42649C67.9395 9.42766 68.5108 9.42666 69.0821 9.42569C69.4906 9.42611 69.8991 9.42668 70.3076 9.42737C71.189 9.42862 72.0703 9.42898 72.9517 9.42861C74.2281 9.42813 75.5046 9.42992 76.7811 9.43238C78.8548 9.43637 80.9286 9.43944 83.0024 9.44151C83.1265 9.44164 83.2507 9.44176 83.3786 9.44189C85.1379 9.44361 86.8973 9.44442 88.6566 9.44487C88.8422 9.44491 88.8422 9.44491 89.0315 9.44496C89.155 9.44499 89.2786 9.44502 89.4059 9.44505C91.4701 9.44563 93.5342 9.44857 95.5983 9.45342C96.8705 9.45632 98.1427 9.45725 99.4148 9.4556C100.392 9.45451 101.368 9.4566 102.345 9.45984C102.744 9.46066 103.144 9.46043 103.543 9.45907C106.376 9.45018 108.623 9.52105 110.821 11.3829C111.279 11.8653 111.656 12.3518 111.982 12.9186C112.064 13.0613 112.064 13.0613 112.149 13.2069C112.784 14.4569 112.734 15.6916 112.72 17.0393C112.72 17.2982 112.72 17.5572 112.72 17.8161C112.721 18.515 112.717 19.2139 112.712 19.9128C112.708 20.6447 112.708 21.3766 112.707 22.1085C112.705 23.4926 112.699 24.8768 112.693 26.2609C112.685 27.8375 112.681 29.414 112.678 30.9906C112.671 34.232 112.66 37.4735 112.645 40.7149C112.32 40.6933 111.995 40.6707 111.671 40.6477C111.49 40.6352 111.309 40.6227 111.123 40.6099C110.655 40.5613 110.655 40.5613 110.323 40.4077C106.556 40.0604 103.017 40.8145 99.9495 42.8937C98.2405 44.2 96.9791 45.5331 95.8974 47.3184C95.7879 47.4704 95.6785 47.6225 95.5657 47.7791C95.2395 47.8369 95.2395 47.8369 94.832 47.8373C94.6005 47.8391 94.6005 47.8391 94.3643 47.8411C94.1945 47.8401 94.0246 47.8392 93.8496 47.8382C93.5818 47.8394 93.5818 47.8394 93.3086 47.8407C92.9197 47.8422 92.5309 47.8427 92.142 47.8422C91.5257 47.8415 90.9096 47.8436 90.2933 47.8465C88.9832 47.8522 87.6731 47.8543 86.3629 47.8559C84.8493 47.8577 83.3357 47.8611 81.8221 47.8682C81.2164 47.8703 80.6108 47.8696 80.0052 47.8689C79.6308 47.8703 79.2564 47.8719 78.8821 47.8736C78.7149 47.8727 78.5477 47.8717 78.3755 47.8707C75.824 47.8911 73.952 48.8879 72.1856 50.5434C70.959 51.796 70.1851 53.3376 70.1644 55.0309C70.1617 55.2241 70.1589 55.4173 70.156 55.6163C70.1544 55.7703 70.1544 55.7703 70.1527 55.9275C70.1492 56.2495 70.1447 56.5715 70.14 56.8935C70.1284 57.6926 70.1185 58.4917 70.1086 59.2908C70.1002 59.9672 70.0911 60.6436 70.0811 61.32C70.0767 61.6379 70.0733 61.9558 70.0698 62.2737C70.0671 62.4654 70.0643 62.6571 70.0614 62.8546C70.0583 63.1092 70.0583 63.1092 70.0552 63.3688C70.03 63.7505 70.03 63.7505 69.8642 63.904C66.9987 64.1102 64.057 64.1364 61.7392 62.3683C61.6377 62.2949 61.5362 62.2214 61.4316 62.1458C60.3061 61.2323 59.4844 59.7374 59.252 58.3755C59.238 58.0741 59.2324 57.7723 59.2332 57.4707C59.2332 57.2924 59.2332 57.1141 59.2332 56.9305C59.234 56.7396 59.2349 56.5487 59.2358 56.3521C59.236 56.1555 59.2363 55.9588 59.2365 55.7563C59.2371 55.2354 59.2388 54.7146 59.2406 54.1938C59.2423 53.6616 59.243 53.1293 59.2439 52.5971C59.2457 51.5542 59.2485 50.5113 59.252 49.4684C59.6897 49.4684 60.1275 49.4684 60.5785 49.4684C60.5785 49.367 60.5785 49.2657 60.5785 49.1613C60.3784 49.1648 60.1784 49.1684 59.9722 49.1721C59.7045 49.1749 59.4368 49.1777 59.1691 49.1805C59.0378 49.183 58.9066 49.1856 58.7714 49.1883C57.7295 49.1962 56.6784 49.1778 55.8527 48.5278C55.529 47.9531 55.4392 47.4927 55.604 46.8577C55.9648 46.4444 56.2525 46.1735 56.7647 45.9363C57.0291 45.9234 57.2941 45.9198 57.5588 45.9213C57.7149 45.9218 57.8709 45.9223 58.0317 45.9228C58.195 45.9241 58.3583 45.9254 58.5265 45.9267C58.6911 45.9274 58.8557 45.9281 59.0253 45.9288C59.4325 45.9306 59.8397 45.9331 60.2469 45.9363C60.2469 45.8349 60.2469 45.7336 60.2469 45.6291C59.9186 45.5785 59.5902 45.5278 59.252 45.4756C59.252 42.3842 59.252 39.2928 59.252 36.1078C60.7443 36.1078 60.7443 36.1078 61.1265 36.3039C61.2554 36.4301 61.2554 36.4301 61.3869 36.5589C61.9452 37.0872 62.3846 37.2088 63.1797 37.2307C64.326 37.2168 65.0495 36.8812 65.8535 36.1365C66.519 35.2384 66.8726 34.4411 66.7137 33.3435C66.4864 32.2662 65.8381 31.6637 64.8897 31.0399C64.1062 30.5998 63.2924 30.618 62.4025 30.7328C61.7512 30.9941 61.244 31.345 60.7443 31.8078C60.2518 31.8078 59.7594 31.8078 59.252 31.8078C59.252 28.7671 59.252 25.7264 59.252 22.5935C59.7445 22.5429 60.2369 22.4922 60.7443 22.44C60.7443 22.3386 60.7443 22.2373 60.7443 22.1328C60.6499 22.1344 60.5556 22.136 60.4583 22.1377C60.0251 22.1441 59.5919 22.1481 59.1587 22.152C58.936 22.1559 58.936 22.1559 58.7089 22.1598C57.655 22.167 56.693 22.1694 55.8631 21.4994C55.5264 20.9255 55.4381 20.4686 55.604 19.8293C55.9648 19.416 56.2525 19.1451 56.7647 18.9078C57.2429 18.8968 57.7169 18.8936 58.1949 18.8983C58.3279 18.8989 58.4608 18.8996 58.5978 18.9004C58.9264 18.9022 59.255 18.9049 59.5836 18.9078C59.5836 18.8065 59.5836 18.7051 59.5836 18.6007C59.4742 18.55 59.3647 18.4994 59.252 18.4471C59.2308 17.278 59.2164 16.1089 59.2064 14.9397C59.2023 14.5426 59.1966 14.1455 59.1894 13.7485C59.1793 13.1751 59.1747 12.6018 59.171 12.0284C59.1667 11.8531 59.1625 11.6779 59.158 11.4973C59.1573 9.57445 59.9431 8.01249 61.3759 6.6426C62.6155 5.56607 64.0111 5.00999 65.6774 4.77935C65.8396 4.75505 66.0019 4.73075 66.1691 4.70572C67.9295 4.44963 69.6981 4.24256 71.4654 4.03216C73.9294 3.73837 76.3895 3.42106 78.8494 3.09968C79.0511 3.07334 79.2528 3.047 79.4606 3.01986C80.2686 2.91434 81.0766 2.80879 81.8846 2.70314C83.1565 2.5369 84.4286 2.37195 85.701 2.20825C85.8622 2.18749 86.0234 2.16673 86.1896 2.14534C86.7931 2.06766 87.3967 1.99 88.0003 1.91266C90.9587 1.53355 93.911 1.12061 96.8612 0.690537C97.2054 0.64039 97.5497 0.590276 97.8939 0.540251C98.2004 0.495717 98.5068 0.451071 98.8133 0.406416C103.1 -0.203797 103.1 -0.203797 104.851 0.940089Z" fill="#1B5E20"/>
<path d="M108.033 42.8169C108.171 42.816 108.309 42.8151 108.451 42.8143C111.412 42.8464 114.158 44.0668 116.293 45.9363C118.62 48.3669 119.673 51.114 119.477 54.3348C119.24 56.8422 117.908 59.2607 115.961 60.9862C115.847 61.0945 115.734 61.2028 115.617 61.3143C113.5 63.2205 110.471 64.012 107.569 63.9875C104.714 63.87 102.081 62.6493 100.043 60.8326C97.4283 58.163 96.6909 55.3144 96.8535 51.7661C97.0595 49.3496 98.6788 47.1072 100.54 45.4756C102.768 43.7387 105.131 42.8342 108.033 42.8169Z" fill="#F7FAF8"/>
<path d="M79.082 50.0129C79.3322 50.0128 79.3322 50.0128 79.5875 50.0127C80.133 50.0131 80.6784 50.0179 81.2239 50.0227C81.6045 50.0238 81.985 50.0247 82.3656 50.0253C83.3627 50.0277 84.3598 50.0337 85.357 50.0405C86.3763 50.0468 87.3956 50.0496 88.4149 50.0527C90.4116 50.0593 92.4083 50.0697 94.405 50.0827C94.5223 50.5898 94.5825 50.9872 94.5009 51.5014C94.0001 55.1194 94.8945 58.495 97.2239 61.4469C97.8524 62.1914 98.5303 62.8242 99.3322 63.4085C99.4025 63.4707 99.4729 63.5328 99.5453 63.5969C99.5453 63.6982 99.5453 63.7996 99.5453 63.904C96.0458 63.9076 92.5462 63.9103 89.0467 63.912C87.4219 63.9128 85.7971 63.9139 84.1724 63.9156C82.7567 63.9171 81.3411 63.9181 79.9255 63.9185C79.1755 63.9187 78.4254 63.9192 77.6754 63.9203C76.9703 63.9213 76.2651 63.9216 75.56 63.9214C75.3005 63.9214 75.0409 63.9217 74.7813 63.9223C74.4285 63.9231 74.0757 63.9229 73.7228 63.9225C73.4259 63.9227 73.4259 63.9227 73.123 63.9229C72.6831 63.904 72.6831 63.904 72.5173 63.7505C72.4982 63.4768 72.4908 63.2023 72.4879 62.9281C72.4858 62.7522 72.4837 62.5762 72.4815 62.3949C72.4802 62.2028 72.479 62.0107 72.4778 61.8128C72.4764 61.6159 72.4751 61.4191 72.4737 61.2162C72.4712 60.7976 72.4696 60.3791 72.4683 59.9605C72.4665 59.4285 72.4608 58.8966 72.4542 58.3647C72.4488 57.8536 72.4481 57.3425 72.4467 56.8314C72.4438 56.6424 72.4409 56.4534 72.4379 56.2587C72.4428 54.4121 72.9509 52.9666 74.3412 51.6184C75.7101 50.4376 77.2371 49.9864 79.082 50.0129Z" fill="#1B5E20"/>
<path d="M97.2764 20.347C97.569 20.3465 97.569 20.3465 97.8674 20.3461C98.0689 20.3497 98.2704 20.3534 98.4779 20.3572C98.68 20.3555 98.8821 20.3538 99.0903 20.3521C100.756 20.3648 100.756 20.3648 101.535 21.0578C101.731 21.4208 101.725 21.6447 101.73 22.0497C101.732 22.1938 101.734 22.3378 101.736 22.4862C101.738 22.6447 101.739 22.8032 101.741 22.9666C101.744 23.2164 101.744 23.2164 101.747 23.4713C101.767 25.1094 101.777 26.7476 101.785 28.3857C101.79 29.4183 101.8 30.4507 101.814 31.4832C101.826 32.3776 101.831 33.272 101.833 34.1665C101.835 34.5469 101.84 34.9273 101.846 35.3077C101.855 35.8399 101.856 36.3715 101.854 36.9037C101.859 37.0613 101.863 37.2189 101.868 37.3812C101.853 38.4256 101.853 38.4256 101.413 38.8287C101.074 39.0279 100.742 39.1845 100.374 39.3327C100.127 39.4595 100.127 39.4595 99.8738 39.5889C99.7209 39.6659 99.5681 39.7429 99.4106 39.8222C98.1473 40.4991 97.1304 41.393 96.1248 42.3646C95.7316 42.7113 95.7316 42.7113 95.2341 42.8649C95.2109 40.0549 95.1934 37.2449 95.1826 34.4349C95.1775 33.1301 95.1705 31.8254 95.1591 30.5207C95.1492 29.3835 95.1427 28.2464 95.1405 27.1091C95.1392 26.507 95.1362 25.9049 95.1289 25.3027C95.1222 24.7358 95.1201 24.1691 95.1216 23.6022C95.1212 23.2952 95.1159 22.9881 95.1104 22.6811C95.1201 21.3705 95.1201 21.3705 95.4453 20.9167C96.0174 20.4509 96.5315 20.3465 97.2764 20.347Z" fill="#F7FAF8"/>
<path d="M86.9485 28.0201C87.06 28.0194 87.1716 28.0186 87.2866 28.0179C87.5218 28.0174 87.7571 28.0188 87.9923 28.022C88.3518 28.0261 88.7103 28.022 89.0697 28.0171C89.2988 28.0176 89.5279 28.0186 89.757 28.0201C90.0685 28.0214 90.0685 28.0214 90.3862 28.0227C90.9229 28.1221 90.9229 28.1221 91.2828 28.4182C91.71 29.0826 91.6779 29.6338 91.6693 30.3936C91.6702 30.5443 91.6711 30.6949 91.672 30.8502C91.6741 31.3474 91.6714 31.8445 91.6684 32.3417C91.6684 32.6872 91.6687 33.0328 91.6691 33.3783C91.6694 34.102 91.6673 34.8257 91.6635 35.5494C91.6588 36.4781 91.6592 37.4068 91.6614 38.3355C91.6625 39.0488 91.6612 39.762 91.6592 40.4753C91.6584 40.8178 91.6584 41.1603 91.659 41.5028C91.6595 41.9808 91.6568 42.4587 91.6531 42.9366C91.6539 43.0788 91.6546 43.221 91.6554 43.3674C91.6537 43.4975 91.6521 43.6275 91.6504 43.7615C91.65 43.8744 91.6496 43.9874 91.6492 44.1038C91.567 44.4905 91.426 44.6265 91.0887 44.8613C90.6656 44.9089 90.2838 44.9295 89.8606 44.9279C89.741 44.9287 89.6215 44.9295 89.4983 44.9303C89.2457 44.9313 88.9932 44.9311 88.7406 44.9298C88.354 44.9285 87.9678 44.9329 87.5813 44.9378C87.3358 44.938 87.0903 44.9379 86.8448 44.9375C86.7293 44.9392 86.6137 44.9409 86.4946 44.9427C86.0232 44.9364 85.7044 44.9305 85.3378 44.641C85.0012 44.0341 85.0487 43.4527 85.0523 42.7797C85.0512 42.6311 85.05 42.4824 85.0489 42.3293C85.0458 41.8377 85.0465 41.3462 85.0474 40.8546C85.0466 40.5131 85.0458 40.1715 85.0448 39.8299C85.0433 39.1138 85.0437 38.3977 85.0453 37.6816C85.0472 36.7637 85.0439 35.846 85.0391 34.9281C85.036 34.2226 85.0361 33.5171 85.037 32.8116C85.037 32.4732 85.036 32.1348 85.034 31.7964C85.0315 31.3232 85.0333 30.8503 85.0361 30.3771C85.0345 30.2372 85.0329 30.0973 85.0312 29.9532C85.0392 29.3195 85.0653 28.9737 85.4226 28.4193C85.9296 28.0007 86.2761 28.0229 86.9485 28.0201Z" fill="#F7FAF8"/>
<path d="M76.9737 35.3765C77.3007 35.3758 77.3007 35.3758 77.6344 35.375C77.7471 35.3772 77.8599 35.3795 77.976 35.3818C78.3202 35.3879 78.6633 35.385 79.0075 35.381C80.636 35.3936 80.636 35.3936 81.2875 35.7716C81.8165 36.5123 81.7529 37.1917 81.7416 38.0616C81.742 38.2363 81.7424 38.411 81.7428 38.591C81.7426 38.9598 81.7404 39.3286 81.7362 39.6974C81.7306 40.2623 81.7328 40.8269 81.736 41.3918C81.7349 41.7503 81.7333 42.1087 81.7312 42.4671C81.732 42.6362 81.7328 42.8053 81.7337 42.9796C81.7297 43.2156 81.7297 43.2156 81.7257 43.4564C81.7247 43.5946 81.7237 43.7328 81.7226 43.8751C81.6095 44.368 81.3969 44.5532 80.974 44.8613C80.4221 44.9408 80.4221 44.9408 79.7718 44.9429C79.6566 44.9435 79.5413 44.944 79.4226 44.9446C79.1795 44.9451 78.9364 44.9439 78.6934 44.9414C78.3221 44.9381 77.9513 44.9413 77.58 44.9453C77.3433 44.9449 77.1067 44.9441 76.8701 44.9429C76.6555 44.9422 76.4408 44.9415 76.2197 44.9408C75.5645 44.8464 75.4119 44.7187 75.0046 44.247C74.9193 43.882 74.9193 43.882 74.9162 43.4729C74.9135 43.3191 74.9109 43.1654 74.9082 43.0069C74.909 42.8417 74.9099 42.6764 74.9107 42.5061C74.9097 42.3353 74.9086 42.1646 74.9076 41.9886C74.9064 41.6274 74.9069 41.2662 74.909 40.905C74.9113 40.3532 74.9057 39.8018 74.8994 39.25C74.8992 38.8988 74.8995 38.5477 74.9003 38.1966C74.8981 38.0319 74.8959 37.8673 74.8937 37.6977C74.9109 36.4178 74.9109 36.4178 75.3544 35.8501C75.939 35.4151 76.2299 35.3767 76.9737 35.3765Z" fill="#F7FAF8"/>
<path d="M65.0258 17.4645C65.8254 17.9397 66.3785 18.5804 66.7863 19.3686C67.046 20.6514 66.8434 21.615 66.0919 22.7087C65.2745 23.4658 64.4023 23.7913 63.2627 23.8605C62.3079 23.849 61.4473 23.4997 60.7443 22.9007C60.7443 22.7993 60.7443 22.698 60.7443 22.5936C60.5254 22.5429 60.3066 22.4922 60.0811 22.44C60.2999 22.44 60.5188 22.44 60.7443 22.44C60.7443 22.3386 60.7443 22.2373 60.7443 22.1328C60.6499 22.1345 60.5556 22.1361 60.4583 22.1377C60.0251 22.1442 59.5919 22.1481 59.1587 22.152C58.936 22.1559 58.936 22.1559 58.7089 22.1598C57.655 22.167 56.693 22.1694 55.8631 21.4994C55.5264 20.9256 55.4381 20.4686 55.604 19.8293C55.9648 19.416 56.2525 19.1451 56.7647 18.9079C57.2429 18.8968 57.7169 18.8936 58.1949 18.8983C58.3279 18.899 58.4608 18.8996 58.5978 18.9004C58.9264 18.9022 59.255 18.9049 59.5836 18.9079C59.5836 18.8065 59.5836 18.7051 59.5836 18.6007C59.4742 18.4994 59.3647 18.398 59.252 18.2936C59.3482 18.2914 59.4444 18.2892 59.5435 18.287C60.5759 18.2286 60.9896 18.0191 61.7392 17.3722C62.8344 16.8116 63.9474 16.9773 65.0258 17.4645Z" fill="#F7FAF8"/>
<path d="M64.5789 44.2566C65.5579 44.6439 66.2902 45.3255 66.7034 46.2338C67.0276 47.2178 66.9927 47.944 66.5376 48.8733C66.0167 49.7591 65.3934 50.3203 64.413 50.7545C63.2999 50.9607 62.3884 50.9813 61.4076 50.3898C61.3085 50.2821 61.2093 50.1744 61.1071 50.0635C60.556 49.626 59.958 49.6499 59.252 49.622C59.252 49.5713 59.252 49.5206 59.252 49.4684C59.6898 49.4684 60.1275 49.4684 60.5785 49.4684C60.5785 49.367 60.5785 49.2657 60.5785 49.1613C60.3785 49.1648 60.1784 49.1684 59.9723 49.1721C59.7046 49.1749 59.4368 49.1777 59.1691 49.1804C59.0379 49.183 58.9066 49.1856 58.7714 49.1882C57.7295 49.1962 56.6785 49.1778 55.8528 48.5278C55.529 47.9531 55.4392 47.4927 55.6041 46.8577C55.9648 46.4444 56.2525 46.1735 56.7648 45.9363C57.0292 45.9234 57.2941 45.9198 57.5589 45.9213C57.7149 45.9218 57.871 45.9223 58.0317 45.9228C58.195 45.9241 58.3583 45.9253 58.5266 45.9267C58.7735 45.9277 58.7735 45.9277 59.0253 45.9288C59.4325 45.9306 59.8397 45.9331 60.2469 45.9363C60.2469 45.8349 60.2469 45.7336 60.2469 45.6291C59.7544 45.5531 59.7544 45.5531 59.252 45.4756C59.252 45.4249 59.252 45.3742 59.252 45.322C59.3482 45.3198 59.4444 45.3176 59.5435 45.3154C60.5709 45.2573 60.9993 45.054 61.7393 44.4006C62.6218 43.9105 63.618 43.9761 64.5789 44.2566Z" fill="#F7FAF8"/>
<path d="M108.293 41.8489C108.428 41.848 108.563 41.8471 108.701 41.8462C111.595 41.8798 114.28 43.1567 116.366 45.1127C118.64 47.6558 119.669 50.5301 119.477 53.9C119.245 56.5234 117.944 59.0539 116.041 60.8592C115.93 60.9725 115.819 61.0858 115.705 61.2026C113.636 63.1969 110.676 64.0251 107.84 63.9994C105.049 63.8765 102.476 62.5993 100.484 60.6986C97.9288 57.9054 97.2082 54.9249 97.3671 51.2124C97.5684 48.684 99.1509 46.3378 100.97 44.6307C103.147 42.8134 105.456 41.867 108.293 41.8489ZM101.287 47.6007C99.6405 49.8428 99.3902 52.1686 99.7649 54.874C100.285 57.2066 101.787 59.1469 103.775 60.4519C106.086 61.7587 108.354 61.9903 110.902 61.3139C113.161 60.6573 114.819 59.3009 116.041 57.3042C117.291 55.0191 117.472 52.6721 116.857 50.1446C116.134 47.8391 114.448 46.0654 112.314 44.952C108.326 43.1473 104.068 44.2485 101.287 47.6007Z" fill="#1B5E20"/>
<path fill-rule="evenodd" clip-rule="evenodd" d="M108.885 46.7692C108.885 46.5143 108.678 46.3077 108.423 46.3077C108.168 46.3077 107.962 46.5143 107.962 46.7692V47.5545C106.975 47.6235 106.073 47.9121 105.38 48.3601C104.585 48.874 104.013 49.6388 104.013 50.5527C104.013 50.9642 104.092 51.3558 104.281 51.7079C104.471 52.0622 104.76 52.3501 105.137 52.5729C105.794 52.9607 106.732 53.1573 107.962 53.1954V57.3692C107.03 57.3064 106.212 57.0567 105.612 56.7014C104.905 56.2825 104.577 55.7697 104.577 55.2934C104.577 55.0385 104.37 54.8319 104.115 54.8319C103.86 54.8319 103.654 55.0385 103.654 55.2934C103.654 56.227 104.29 56.9905 105.142 57.4955C105.897 57.9434 106.883 58.2301 107.962 58.2941V59.0769C107.962 59.3318 108.168 59.5385 108.423 59.5385C108.678 59.5385 108.885 59.3318 108.885 59.0769V58.2986C109.937 58.2563 110.921 58.0637 111.684 57.662C112.583 57.1886 113.192 56.4096 113.192 55.2934C113.192 54.7766 113.09 54.3088 112.865 53.9021C112.64 53.4936 112.305 53.1739 111.883 52.9326C111.146 52.5116 110.129 52.3217 108.885 52.2857V48.4802C109.709 48.5474 110.432 48.7912 110.965 49.1353C111.599 49.5452 111.91 50.0568 111.91 50.5527C111.91 50.8076 112.117 51.0142 112.372 51.0142C112.627 51.0142 112.833 50.8076 112.833 50.5527C112.833 49.6387 112.261 48.874 111.466 48.3601C110.773 47.9121 109.872 47.6235 108.885 47.5545V46.7692ZM107.962 48.4802C107.137 48.5474 106.414 48.7912 105.881 49.1353C105.247 49.5452 104.936 50.0568 104.936 50.5527C104.936 50.8462 104.992 51.0805 105.094 51.2708C105.195 51.459 105.356 51.63 105.606 51.7779C106.067 52.0497 106.814 52.2335 107.962 52.2718V48.4802ZM108.885 53.2092V57.3747C109.841 57.3326 110.662 57.1567 111.254 56.8451C111.914 56.498 112.269 56.0007 112.269 55.2934C112.269 54.8986 112.192 54.5915 112.058 54.3486C111.924 54.1076 111.721 53.903 111.425 53.7341C110.883 53.4247 110.054 53.2456 108.885 53.2092Z" fill="#1B5E20"/>
<path d="M58.081 45.9933C58.3192 45.9927 58.3192 45.9927 58.5622 45.9921C58.8973 45.9923 59.2323 45.9943 59.5674 45.9982C60.0795 46.0034 60.5911 46.0013 61.1033 45.9984C61.4293 45.9994 61.7553 46.0009 62.0813 46.0029C62.234 46.0021 62.3867 46.0013 62.5441 46.0006C63.2458 46.0125 63.6296 46.0323 64.2363 46.3832C64.6446 46.7902 64.7146 46.9546 64.8069 47.5104C64.7044 48.2225 64.5007 48.3807 63.9182 48.8153C63.2867 49.1577 62.6716 49.1334 61.9557 49.1193C61.8047 49.1194 61.6537 49.1196 61.4982 49.1197C61.1807 49.119 60.8632 49.116 60.5458 49.1109C60.0606 49.1037 59.576 49.1046 59.0908 49.1067C58.7814 49.105 58.472 49.1028 58.1626 49.1001C57.946 49.1005 57.946 49.1005 57.725 49.1009C57.0434 49.0862 56.6857 49.0584 56.0971 48.714C55.5914 48.2185 55.5709 47.8653 55.5173 47.1906C55.8362 45.9674 56.9684 45.9784 58.081 45.9933Z" fill="#1B5E20"/>
<path d="M58.0809 32.4791C58.3191 32.4785 58.3191 32.4785 58.5621 32.4779C58.8972 32.4781 59.2322 32.4801 59.5673 32.484C60.0794 32.4892 60.591 32.4871 61.1032 32.4842C61.4292 32.4852 61.7552 32.4867 62.0812 32.4887C62.2339 32.4879 62.3866 32.4871 62.544 32.4863C63.2457 32.4983 63.6295 32.5181 64.2362 32.869C64.615 33.2467 64.7109 33.4089 64.7861 33.9194C64.6995 34.6143 64.4184 34.8434 63.8948 35.3399C63.5196 35.5137 63.3012 35.5173 62.8842 35.5255C62.7441 35.5285 62.6041 35.5315 62.4598 35.5345C61.819 35.5434 61.1783 35.5509 60.5374 35.5557C60.1995 35.559 59.8616 35.5642 59.5237 35.5714C59.0365 35.5817 58.5495 35.5859 58.0621 35.5889C57.9115 35.5931 57.7608 35.5974 57.6056 35.6018C56.5811 35.5987 56.5811 35.5987 56.1519 35.2935C55.7657 34.8773 55.488 34.5052 55.5004 33.9482C55.7434 32.5302 56.7617 32.4615 58.0809 32.4791Z" fill="#1B5E20"/>
<path d="M58.081 18.9649C58.3192 18.9643 58.3192 18.9643 58.5622 18.9637C58.8973 18.9639 59.2323 18.9659 59.5674 18.9698C60.0795 18.975 60.5911 18.9729 61.1033 18.97C61.4293 18.971 61.7553 18.9725 62.0813 18.9745C62.234 18.9737 62.3867 18.9729 62.5441 18.9721C63.2458 18.9841 63.6296 19.0039 64.2363 19.3548C64.6239 19.7412 64.715 19.8884 64.7655 20.4148C64.7183 20.9721 64.595 21.2334 64.2266 21.6721C63.7593 21.9354 63.4056 22.0186 62.8619 22.0239C62.7252 22.0259 62.5885 22.0278 62.4476 22.0298C62.3013 22.0302 62.155 22.0305 62.0042 22.0309C61.8526 22.0319 61.7009 22.0329 61.5446 22.034C61.2242 22.0355 60.9038 22.0362 60.5834 22.0362C60.0938 22.0369 59.6046 22.0424 59.1151 22.0483C58.8034 22.0492 58.4918 22.0498 58.1801 22.0501C58.0341 22.0523 57.8882 22.0545 57.7378 22.0568C57.0494 22.052 56.6916 22.0331 56.096 21.6869C55.5926 21.1899 55.5709 20.8368 55.5173 20.1622C55.8362 18.939 56.9684 18.95 58.081 18.9649Z" fill="#1B5E20"/>
<path d="M64.6055 30.7136C65.5602 31.2315 66.3066 31.9446 66.776 32.8732C67.0282 34.0177 66.9079 34.7275 66.309 35.749C65.7729 36.4932 65.0175 37.1302 64.0607 37.3363C63.057 37.4224 62.2713 37.4089 61.4077 36.8756C61.2589 36.7141 61.2589 36.7141 61.1071 36.5493C60.556 36.1118 59.958 36.1357 59.2521 36.1078C59.2521 36.0571 59.2521 36.0064 59.2521 35.9542C59.6898 35.9035 60.1276 35.8528 60.5786 35.8006C58.6908 35.7246 58.6908 35.7246 56.7648 35.647C56.7648 35.5964 56.7648 35.5457 56.7648 35.4935C56.9664 35.492 57.168 35.4906 57.3757 35.4891C58.1252 35.483 58.8745 35.4729 59.6239 35.4616C59.948 35.4573 60.272 35.454 60.5961 35.4519C61.0626 35.4486 61.5288 35.4414 61.9952 35.4335C62.2118 35.4332 62.2118 35.4332 62.4328 35.4329C63.1157 35.4177 63.4757 35.3911 64.0655 35.0461C64.4545 34.6647 64.5455 34.5068 64.6204 33.9866C64.5993 33.4807 64.5993 33.4807 64.2423 33.0893C63.5256 32.5864 62.9655 32.6171 62.0884 32.6206C61.9313 32.6183 61.7742 32.616 61.6124 32.6136C61.1123 32.607 60.6124 32.6056 60.1122 32.6044C59.7725 32.6009 59.4328 32.597 59.093 32.5927C58.2617 32.5831 57.4304 32.5781 56.599 32.5756C56.599 32.525 56.599 32.4743 56.599 32.4221C58.3227 32.346 58.3227 32.346 60.0811 32.2685C60.0811 32.2178 60.0811 32.1671 60.0811 32.1149C59.6707 32.0389 59.6707 32.0389 59.2521 31.9613C59.2521 31.9107 59.2521 31.86 59.2521 31.8078C59.3482 31.8056 59.4444 31.8034 59.5435 31.8012C60.5709 31.7431 60.9994 31.5398 61.7393 30.8864C62.5896 30.4015 63.681 30.3857 64.6055 30.7136Z" fill="#F7FAF8"/>
<path d="M47.2 109.76H56.58V94.64H47.2V109.76ZM44.68 112V92.4H56.86L59.1 94.64V109.76L56.86 112H44.68ZM62.1734 109.48V103.04L73.3734 102.76V98.56H62.7334V96.32H73.3734L75.8934 98.84V112H64.6934L62.1734 109.48ZM64.6934 105.28V109.76H73.3734V104.72L64.6934 105.28ZM79.2425 112V94.92L81.7625 92.4H88.4825V94.64H81.7625V99.96H88.4825V102.2H81.7625V112H79.2425ZM90.7269 93.8L93.2469 92.4V96.88H100.527V99.12H93.2469V109.76H100.527V112H93.2469L90.7269 109.48V93.8ZM102.478 109.48V103.04L113.678 102.76V98.56H103.038V96.32H113.678L116.198 98.84V112H104.998L102.478 109.48ZM104.998 105.28V109.76H113.678V104.72L104.998 105.28ZM119.547 112V98.84L122.067 96.32H130.467V98.56H122.067V112H119.547Z" fill="#1B5E20"/>
<path d="M0.976 139.544C1.40267 139.651 1.89867 139.741 2.464 139.816C3.04 139.88 3.58933 139.912 4.112 139.912C4.37867 139.912 4.64 139.907 4.896 139.896C5.16267 139.885 5.504 139.859 5.92 139.816V136.84L4.4 136.728C3.68533 136.675 3.09867 136.595 2.64 136.488C2.18133 136.371 1.81867 136.211 1.552 136.008C1.296 135.795 1.11467 135.517 1.008 135.176C0.912 134.835 0.864 134.403 0.864 133.88C0.864 133.112 0.96 132.504 1.152 132.056C1.35467 131.597 1.68 131.267 2.128 131.064C2.576 130.861 3.168 130.76 3.904 130.76C4.45867 130.76 4.99733 130.787 5.52 130.84C6.04267 130.883 6.58133 130.957 7.136 131.064L6.928 132.328C6.45867 132.243 5.99467 132.184 5.536 132.152C5.07733 132.109 4.56533 132.088 4 132.088C3.69067 132.088 3.44 132.093 3.248 132.104C3.056 132.115 2.84267 132.136 2.608 132.168V135.176L4.384 135.288C5.22667 135.341 5.88267 135.469 6.352 135.672C6.832 135.864 7.168 136.168 7.36 136.584C7.56267 137 7.664 137.565 7.664 138.28C7.664 139.016 7.54667 139.603 7.312 140.04C7.07733 140.467 6.688 140.776 6.144 140.968C5.61067 141.149 4.88533 141.24 3.968 141.24C3.40267 141.24 2.85867 141.208 2.336 141.144C1.81333 141.091 1.28 140.995 0.736 140.856L0.976 139.544ZM9.73688 133.112L11.3369 132.872V141H9.73688V133.112ZM10.5529 131.608C10.1582 131.608 9.89154 131.544 9.75288 131.416C9.62488 131.277 9.56088 131.021 9.56088 130.648C9.56088 130.264 9.63021 130.003 9.76888 129.864C9.90754 129.725 10.1689 129.656 10.5529 129.656C10.9262 129.656 11.1769 129.725 11.3049 129.864C11.4435 130.003 11.5129 130.264 11.5129 130.648C11.5129 131.021 11.4489 131.277 11.3209 131.416C11.1929 131.544 10.9369 131.608 10.5529 131.608ZM14.2213 141V133H14.9573L15.3893 133.8C15.7733 133.469 16.1893 133.229 16.6373 133.08C17.0959 132.92 17.6186 132.84 18.2053 132.84C18.9519 132.84 19.5173 132.957 19.9013 133.192C20.2853 133.416 20.4773 133.752 20.4773 134.2V141H18.8773V134.152H17.1813C16.6586 134.152 16.3013 134.216 16.1093 134.344C15.9173 134.472 15.8213 134.717 15.8213 135.08V141H14.2213ZM18.8773 141V133L20.0293 133.8C20.4133 133.469 20.8293 133.229 21.2773 133.08C21.7359 132.92 22.2586 132.84 22.8453 132.84C23.5919 132.84 24.1573 132.957 24.5413 133.192C24.9253 133.416 25.1173 133.752 25.1173 134.2V141H23.5173V134.152H21.8212C21.2986 134.152 20.9413 134.216 20.7493 134.344C20.5573 134.472 20.4613 134.717 20.4613 135.08V141H18.8773ZM31.7484 141.24C31.0657 141.24 30.5057 141.181 30.0684 141.064C29.6417 140.957 29.311 140.755 29.0764 140.456C28.8524 140.157 28.6977 139.731 28.6124 139.176C28.527 138.621 28.4844 137.896 28.4844 137C28.4844 136.115 28.527 135.4 28.6124 134.856C28.6977 134.312 28.8524 133.896 29.0764 133.608C29.311 133.309 29.6417 133.107 30.0684 133C30.5057 132.893 31.0657 132.84 31.7484 132.84C32.335 132.84 32.815 132.904 33.1884 133.032C33.5617 133.149 33.8497 133.363 34.0524 133.672C34.2657 133.971 34.415 134.392 34.5004 134.936C34.5857 135.469 34.6284 136.157 34.6284 137C34.6284 137.843 34.5857 138.541 34.5004 139.096C34.415 139.651 34.2657 140.083 34.0524 140.392C33.839 140.701 33.5457 140.92 33.1724 141.048C32.799 141.176 32.3244 141.24 31.7484 141.24ZM29.5244 139.928H32.2124C32.5004 139.928 32.6924 139.901 32.7884 139.848C32.895 139.795 32.9484 139.688 32.9484 139.528V134.152H30.2604C29.983 134.152 29.791 134.179 29.6844 134.232C29.5777 134.275 29.5244 134.355 29.5244 134.472V139.928ZM27.9244 143.832V133H28.6604L29.5244 134.6V143.64L27.9244 143.832ZM38.5538 139.816C38.6498 139.827 38.7618 139.843 38.8898 139.864C39.0284 139.875 39.1618 139.885 39.2898 139.896L39.1938 140.984C38.9804 141.048 38.7884 141.091 38.6178 141.112C38.4578 141.144 38.2978 141.16 38.1378 141.16C37.7431 141.16 37.4444 141.064 37.2418 140.872C37.0498 140.669 36.9538 140.365 36.9538 139.96V130.6L38.5538 130.36V139.816ZM44.0015 141.16C43.3935 141.16 42.8868 141.096 42.4815 140.968C42.0762 140.84 41.7562 140.621 41.5215 140.312C41.2975 140.003 41.1375 139.581 41.0415 139.048C40.9455 138.504 40.8975 137.821 40.8975 137C40.8975 135.944 40.9988 135.112 41.2015 134.504C41.4042 133.896 41.7508 133.469 42.2415 133.224C42.7428 132.968 43.4202 132.84 44.2735 132.84C45.1162 132.84 45.7668 132.909 46.2255 133.048C46.6948 133.187 47.0202 133.432 47.2015 133.784C47.3828 134.125 47.4735 134.611 47.4735 135.24C47.4735 135.795 47.4148 136.243 47.2975 136.584C47.1908 136.915 46.9668 137.171 46.6255 137.352C46.2948 137.523 45.8042 137.64 45.1535 137.704C44.5135 137.757 43.6548 137.784 42.5775 137.784H42.0975V136.744H44.6895C45.2122 136.744 45.5642 136.68 45.7455 136.552C45.9375 136.424 46.0335 136.179 46.0335 135.816V134.152H43.9055C43.3935 134.152 43.0415 134.216 42.8495 134.344C42.6682 134.472 42.5775 134.717 42.5775 135.08V139.72C42.8122 139.784 43.0628 139.832 43.3295 139.864C43.5962 139.885 43.9162 139.896 44.2895 139.896C44.7162 139.896 45.1375 139.869 45.5535 139.816C45.9695 139.752 46.4708 139.651 47.0575 139.512L47.2655 140.68C46.8708 140.829 46.3802 140.947 45.7935 141.032C45.2175 141.117 44.6202 141.16 44.0015 141.16ZM55.6338 136.632V139.672H60.0338V141H54.0338V131H59.9858L59.7938 132.328H55.6338V135.368H59.4258V136.632H55.6338ZM66.7961 141L61.3241 133H63.0361L68.5081 141H66.7961ZM61.2441 141L64.0921 136.632L65.0361 137.672L62.9401 141H61.2441ZM65.5641 137.368L64.6361 136.328L66.7321 133H68.4281L65.5641 137.368ZM74.1859 141.24C73.5032 141.24 72.9432 141.181 72.5059 141.064C72.0792 140.957 71.7485 140.755 71.5139 140.456C71.2899 140.157 71.1352 139.731 71.0499 139.176C70.9645 138.621 70.9219 137.896 70.9219 137C70.9219 136.115 70.9645 135.4 71.0499 134.856C71.1352 134.312 71.2899 133.896 71.5139 133.608C71.7485 133.309 72.0792 133.107 72.5059 133C72.9432 132.893 73.5032 132.84 74.1859 132.84C74.7725 132.84 75.2525 132.904 75.6259 133.032C75.9992 133.149 76.2872 133.363 76.4899 133.672C76.7032 133.971 76.8525 134.392 76.9379 134.936C77.0232 135.469 77.0659 136.157 77.0659 137C77.0659 137.843 77.0232 138.541 76.9379 139.096C76.8525 139.651 76.7032 140.083 76.4899 140.392C76.2765 140.701 75.9832 140.92 75.6099 141.048C75.2365 141.176 74.7619 141.24 74.1859 141.24ZM71.9619 139.928H74.6499C74.9379 139.928 75.1299 139.901 75.2259 139.848C75.3325 139.795 75.3859 139.688 75.3859 139.528V134.152H72.6979C72.4205 134.152 72.2285 134.179 72.1219 134.232C72.0152 134.275 71.9619 134.355 71.9619 134.472V139.928ZM70.3619 143.832V133H71.0979L71.9619 134.6V143.64L70.3619 143.832ZM82.0953 141.16C81.4873 141.16 80.9806 141.096 80.5753 140.968C80.1699 140.84 79.8499 140.621 79.6153 140.312C79.3913 140.003 79.2313 139.581 79.1353 139.048C79.0393 138.504 78.9913 137.821 78.9913 137C78.9913 135.944 79.0926 135.112 79.2953 134.504C79.4979 133.896 79.8446 133.469 80.3353 133.224C80.8366 132.968 81.5139 132.84 82.3673 132.84C83.2099 132.84 83.8606 132.909 84.3193 133.048C84.7886 133.187 85.1139 133.432 85.2953 133.784C85.4766 134.125 85.5673 134.611 85.5673 135.24C85.5673 135.795 85.5086 136.243 85.3913 136.584C85.2846 136.915 85.0606 137.171 84.7193 137.352C84.3886 137.523 83.8979 137.64 83.2473 137.704C82.6073 137.757 81.7486 137.784 80.6713 137.784H80.1913V136.744H82.7833C83.3059 136.744 83.6579 136.68 83.8393 136.552C84.0313 136.424 84.1273 136.179 84.1273 135.816V134.152H81.9993C81.4873 134.152 81.1353 134.216 80.9433 134.344C80.7619 134.472 80.6713 134.717 80.6713 135.08V139.72C80.9059 139.784 81.1566 139.832 81.4233 139.864C81.6899 139.885 82.0099 139.896 82.3833 139.896C82.8099 139.896 83.2313 139.869 83.6473 139.816C84.0633 139.752 84.5646 139.651 85.1513 139.512L85.3593 140.68C84.9646 140.829 84.4739 140.947 83.8873 141.032C83.3113 141.117 82.7139 141.16 82.0953 141.16ZM88.1275 141V133H88.8635L89.2955 133.8C89.7008 133.469 90.1435 133.229 90.6235 133.08C91.1035 132.92 91.6528 132.84 92.2715 132.84C93.0182 132.84 93.5835 132.957 93.9675 133.192C94.3515 133.416 94.5435 133.752 94.5435 134.2V141H92.9435V134.152H91.0875C90.5648 134.152 90.2075 134.216 90.0155 134.344C89.8235 134.472 89.7275 134.717 89.7275 135.08V141H88.1275ZM96.8023 135.144C96.8023 134.323 97.0476 133.72 97.5383 133.336C98.0289 132.952 98.7916 132.76 99.8263 132.76C100.306 132.76 100.76 132.792 101.186 132.856C101.624 132.909 102.056 132.995 102.482 133.112L102.258 134.28C101.992 134.205 101.677 134.147 101.314 134.104C100.962 134.051 100.626 134.024 100.306 134.024C99.9649 134.024 99.6343 134.04 99.3143 134.072C99.0049 134.093 98.7276 134.125 98.4823 134.168V136.056C99.4103 136.184 100.162 136.317 100.738 136.456C101.314 136.584 101.757 136.744 102.066 136.936C102.376 137.128 102.589 137.368 102.706 137.656C102.824 137.944 102.882 138.307 102.882 138.744C102.882 139.341 102.77 139.827 102.546 140.2C102.333 140.563 101.981 140.829 101.49 141C101 141.16 100.344 141.24 99.5223 141.24C99.0529 141.24 98.5783 141.197 98.0983 141.112C97.6183 141.037 97.1276 140.925 96.6263 140.776L96.8823 139.496C97.7036 139.816 98.5783 139.976 99.5063 139.976C99.8263 139.976 100.104 139.96 100.338 139.928C100.584 139.896 100.872 139.837 101.202 139.752V137.864C100.221 137.725 99.4369 137.592 98.8503 137.464C98.2636 137.336 97.8209 137.181 97.5223 137C97.2343 136.808 97.0423 136.568 96.9463 136.28C96.8503 135.981 96.8023 135.603 96.8023 135.144ZM107.673 141.16C107.065 141.16 106.559 141.096 106.153 140.968C105.748 140.84 105.428 140.621 105.193 140.312C104.969 140.003 104.809 139.581 104.713 139.048C104.617 138.504 104.569 137.821 104.569 137C104.569 135.944 104.671 135.112 104.873 134.504C105.076 133.896 105.423 133.469 105.913 133.224C106.415 132.968 107.092 132.84 107.945 132.84C108.788 132.84 109.439 132.909 109.897 133.048C110.367 133.187 110.692 133.432 110.873 133.784C111.055 134.125 111.145 134.611 111.145 135.24C111.145 135.795 111.087 136.243 110.969 136.584C110.863 136.915 110.639 137.171 110.297 137.352C109.967 137.523 109.476 137.64 108.825 137.704C108.185 137.757 107.327 137.784 106.249 137.784H105.769V136.744H108.361C108.884 136.744 109.236 136.68 109.417 136.552C109.609 136.424 109.705 136.179 109.705 135.816V134.152H107.577C107.065 134.152 106.713 134.216 106.521 134.344C106.34 134.472 106.249 134.717 106.249 135.08V139.72C106.484 139.784 106.735 139.832 107.001 139.864C107.268 139.885 107.588 139.896 107.961 139.896C108.388 139.896 108.809 139.869 109.225 139.816C109.641 139.752 110.143 139.651 110.729 139.512L110.937 140.68C110.543 140.829 110.052 140.947 109.465 141.032C108.889 141.117 108.292 141.16 107.673 141.16ZM120.746 132.328V141H119.146V132.328H116.506V131H123.386V132.328H120.746ZM125.817 133L126.377 134.264C126.857 133.827 127.268 133.496 127.609 133.272C127.95 133.037 128.27 132.867 128.569 132.76L128.729 134.328C128.505 134.392 128.265 134.483 128.009 134.6C127.753 134.707 127.508 134.824 127.273 134.952C127.049 135.08 126.846 135.213 126.665 135.352V141H125.065V133H125.817ZM132.297 141.16C131.422 141.16 130.793 140.979 130.409 140.616C130.035 140.243 129.849 139.624 129.849 138.76C129.849 138.205 129.902 137.763 130.009 137.432C130.115 137.091 130.323 136.835 130.633 136.664C130.953 136.483 131.422 136.365 132.041 136.312C132.659 136.248 133.475 136.216 134.489 136.216H135.209V137.256H132.601C132.099 137.256 131.758 137.32 131.577 137.448C131.395 137.576 131.305 137.821 131.305 138.184V139.928H133.449C133.95 139.928 134.286 139.864 134.457 139.736C134.638 139.608 134.729 139.363 134.729 139V134.28C134.334 134.163 133.795 134.104 133.113 134.104C132.697 134.104 132.259 134.136 131.801 134.2C131.342 134.264 130.878 134.36 130.409 134.488L130.201 133.32C130.467 133.224 130.777 133.139 131.129 133.064C131.481 132.989 131.854 132.936 132.249 132.904C132.643 132.861 133.022 132.84 133.385 132.84C134.11 132.84 134.686 132.915 135.113 133.064C135.55 133.203 135.859 133.437 136.041 133.768C136.233 134.088 136.329 134.525 136.329 135.08V141H135.593L135.161 140.2C134.777 140.531 134.35 140.776 133.881 140.936C133.422 141.085 132.894 141.16 132.297 141.16ZM141.528 141.16C140.952 141.16 140.477 141.101 140.104 140.984C139.73 140.856 139.437 140.637 139.224 140.328C139.01 140.019 138.861 139.597 138.776 139.064C138.69 138.52 138.648 137.832 138.648 137C138.648 136.168 138.69 135.48 138.776 134.936C138.861 134.392 139.01 133.971 139.224 133.672C139.437 133.363 139.73 133.149 140.104 133.032C140.477 132.904 140.952 132.84 141.528 132.84C141.816 132.84 142.114 132.851 142.424 132.872C142.744 132.893 143.048 132.925 143.336 132.968C143.634 133.011 143.896 133.064 144.12 133.128L143.928 134.344C143.544 134.259 143.17 134.2 142.808 134.168C142.445 134.125 142.077 134.104 141.704 134.104C141.181 134.104 140.818 134.205 140.616 134.408C140.413 134.6 140.312 134.947 140.312 135.448V139.72C140.696 139.837 141.24 139.896 141.944 139.896C142.285 139.896 142.616 139.869 142.936 139.816C143.266 139.752 143.661 139.651 144.12 139.512L144.296 140.68C143.933 140.829 143.506 140.947 143.016 141.032C142.536 141.117 142.04 141.16 141.528 141.16ZM149.242 137.288H147.978V141H146.378V130.6L147.978 130.36V136.168H149.242L150.938 133H152.618L150.57 136.728L152.698 141H151.05L149.242 137.288ZM154.299 133.112L155.899 132.872V141H154.299V133.112ZM155.115 131.608C154.721 131.608 154.454 131.544 154.315 131.416C154.187 131.277 154.123 131.021 154.123 130.648C154.123 130.264 154.193 130.003 154.331 129.864C154.47 129.725 154.731 129.656 155.115 129.656C155.489 129.656 155.739 129.725 155.867 129.864C156.006 130.003 156.075 130.264 156.075 130.648C156.075 131.021 156.011 131.277 155.883 131.416C155.755 131.544 155.499 131.608 155.115 131.608ZM158.784 141V133H159.52L159.952 133.8C160.357 133.469 160.8 133.229 161.28 133.08C161.76 132.92 162.309 132.84 162.928 132.84C163.674 132.84 164.24 132.957 164.624 133.192C165.008 133.416 165.2 133.752 165.2 134.2V141H163.6V134.152H161.744C161.221 134.152 160.864 134.216 160.672 134.344C160.48 134.472 160.384 134.717 160.384 135.08V141H158.784ZM170.435 138.664C169.645 138.664 169.016 138.573 168.547 138.392C168.088 138.211 167.763 137.907 167.571 137.48C167.379 137.053 167.283 136.467 167.283 135.72C167.283 134.973 167.379 134.387 167.571 133.96C167.763 133.533 168.088 133.229 168.547 133.048C169.016 132.856 169.645 132.76 170.435 132.76C171.235 132.76 171.864 132.856 172.323 133.048C172.781 133.229 173.107 133.533 173.299 133.96C173.501 134.387 173.603 134.973 173.603 135.72C173.603 136.456 173.507 137.043 173.315 137.48C173.123 137.907 172.792 138.211 172.323 138.392C171.864 138.573 171.235 138.664 170.435 138.664ZM168.867 137.608H170.851C171.288 137.608 171.592 137.539 171.763 137.4C171.933 137.251 172.019 136.989 172.019 136.616V133.816H170.035C169.597 133.816 169.293 133.891 169.123 134.04C168.952 134.179 168.867 134.435 168.867 134.808V137.608ZM173.699 141.624C173.699 142.115 173.597 142.509 173.395 142.808C173.192 143.107 172.856 143.32 172.387 143.448C171.928 143.576 171.304 143.64 170.515 143.64C169.939 143.64 169.373 143.597 168.819 143.512C168.275 143.427 167.805 143.309 167.411 143.16L167.618 141.944C168.163 142.083 168.632 142.179 169.027 142.232C169.421 142.296 169.821 142.328 170.227 142.328C170.664 142.328 171.037 142.312 171.347 142.28C171.667 142.259 171.976 142.216 172.275 142.152V140.968C171.187 140.904 170.413 140.819 169.955 140.712C169.496 140.605 169.267 140.461 169.267 140.28L169.747 138.44H170.771L170.674 139.816C171.315 139.891 171.832 139.971 172.227 140.056C172.632 140.131 172.936 140.232 173.139 140.36C173.352 140.488 173.496 140.653 173.571 140.856C173.656 141.059 173.699 141.315 173.699 141.624ZM173.043 134.36L172.099 133.208L173.459 132.168L174.259 132.952L173.043 134.36Z" fill="#717680"/>
</svg>
