<svg width="24" height="24" viewBox="0 0 24 24" fill="none" xmlns="http://www.w3.org/2000/svg">
<path d="M18.5068 0.352533C18.5514 0.380446 18.5959 0.408359 18.6419 0.437117C19.0136 0.701163 19.2527 1.02858 19.3773 1.44672C19.419 1.84929 19.3993 2.25293 19.3773 2.65609C18.9875 2.65609 18.5976 2.65609 18.1959 2.65609C18.1804 2.18458 18.1804 2.18458 18.1774 2.03764C18.1635 1.75212 18.1154 1.59593 17.885 1.38913C17.6581 1.24904 17.4889 1.25573 17.2264 1.25848C17.1795 1.25878 17.1326 1.25908 17.0843 1.2594C16.5664 1.26784 16.0614 1.33384 15.5503 1.40646C15.449 1.42031 15.3477 1.4341 15.2463 1.44782C14.9822 1.48378 14.7182 1.52056 14.4542 1.55754C14.1891 1.59454 13.9239 1.63078 13.6586 1.66707C13.3023 1.71588 12.9459 1.76493 12.5897 1.81435C12.0676 1.88675 11.5453 1.95712 11.0226 2.02553C10.6367 2.07619 10.2515 2.13065 9.8663 2.18609C8.98609 2.31271 8.10529 2.4255 7.2205 2.5211C6.85791 2.5611 6.50567 2.6073 6.15074 2.68631C5.84269 2.74555 5.52816 2.76923 5.2156 2.80006C4.26496 2.8401 4.26496 2.8401 3.3968 3.1168C3.41361 3.25716 3.41361 3.25716 3.45898 3.40475C3.65208 3.52398 3.69255 3.53433 3.91111 3.53436C3.96561 3.53464 4.0201 3.53493 4.07625 3.53523C4.13617 3.53496 4.19608 3.53469 4.25782 3.53441C4.32144 3.53458 4.38506 3.53476 4.45061 3.53493C4.66484 3.53537 4.87906 3.535 5.09329 3.53463C5.24648 3.53479 5.39968 3.535 5.55287 3.53526C5.88338 3.53573 6.21389 3.53587 6.54439 3.53573C7.02307 3.53555 7.50174 3.53622 7.98041 3.53714C8.75807 3.53864 9.53574 3.53979 10.3134 3.54057C10.36 3.54061 10.4065 3.54066 10.4545 3.54071C11.1142 3.54135 11.774 3.54166 12.4337 3.54182C12.5033 3.54184 12.5033 3.54184 12.5743 3.54186C12.6207 3.54187 12.667 3.54188 12.7147 3.54189C13.4888 3.54211 14.2628 3.54321 15.0369 3.54503C15.514 3.54612 15.991 3.54647 16.4681 3.54585C16.8344 3.54544 17.2006 3.54622 17.5669 3.54744C17.7167 3.54775 17.8665 3.54766 18.0163 3.54715C19.0787 3.54382 19.9213 3.5704 20.7453 4.26858C20.917 4.44947 21.0584 4.63193 21.1806 4.84447C21.2116 4.89799 21.2116 4.89799 21.2433 4.95258C21.4814 5.42132 21.4627 5.88433 21.4576 6.38973C21.4575 6.48684 21.4575 6.58394 21.4577 6.68105C21.4577 6.94314 21.4563 7.20521 21.4545 7.46729C21.453 7.74176 21.4528 8.01622 21.4525 8.29068C21.4518 8.80974 21.4497 9.32879 21.4472 9.84784C21.4444 10.439 21.4431 11.0303 21.4418 11.6215C21.4392 12.837 21.4349 14.0525 21.4293 15.2681C21.3075 15.26 21.1858 15.2515 21.064 15.2429C20.9962 15.2382 20.9284 15.2335 20.8585 15.2287C20.6831 15.2105 20.6831 15.2105 20.5588 15.1529C19.1461 15.0227 17.819 15.3054 16.6686 16.0851C16.0277 16.575 15.5547 17.0749 15.149 17.7444C15.108 17.8014 15.0669 17.8584 15.0247 17.9172C14.9023 17.9388 14.9023 17.9388 14.7495 17.939C14.6627 17.9397 14.6627 17.9397 14.5741 17.9404C14.5104 17.94 14.4467 17.9397 14.3811 17.9393C14.2807 17.9398 14.2807 17.9398 14.1782 17.9403C14.0324 17.9408 13.8866 17.941 13.7408 17.9408C13.5097 17.9406 13.2786 17.9414 13.0475 17.9425C12.5562 17.9446 12.0649 17.9454 11.5736 17.946C11.006 17.9466 10.4384 17.9479 9.8708 17.9506C9.64368 17.9514 9.41658 17.9511 9.18946 17.9508C9.04907 17.9514 8.90868 17.952 8.7683 17.9526C8.70561 17.9522 8.64292 17.9519 8.57833 17.9515C7.62152 17.9592 6.91951 18.333 6.25713 18.9538C5.79714 19.4235 5.50694 20.0016 5.49918 20.6366C5.49814 20.709 5.4971 20.7815 5.49603 20.8561C5.4954 20.9139 5.4954 20.9139 5.49477 20.9728C5.49346 21.0936 5.49178 21.2143 5.49 21.3351C5.48567 21.6347 5.48196 21.9344 5.47825 22.234C5.47508 22.4877 5.47168 22.7413 5.46794 22.995C5.46628 23.1142 5.46499 23.2334 5.46371 23.3526C5.46267 23.4245 5.46163 23.4964 5.46056 23.5705C5.45939 23.6659 5.45939 23.6659 5.4582 23.7633C5.44878 23.9064 5.44878 23.9064 5.3866 23.964C4.31202 24.0413 3.20889 24.0511 2.33972 23.3881C2.30165 23.3606 2.26358 23.333 2.22435 23.3047C1.80231 22.9621 1.49416 22.4015 1.40701 21.8908C1.40177 21.7778 1.39968 21.6646 1.39995 21.5515C1.39995 21.4847 1.39996 21.4178 1.39996 21.3489C1.40028 21.2774 1.4006 21.2058 1.40093 21.132C1.40102 21.0583 1.40111 20.9846 1.4012 20.9086C1.40144 20.7133 1.40205 20.518 1.40274 20.3227C1.40338 20.1231 1.40366 19.9235 1.40397 19.7239C1.40466 19.3328 1.4057 18.9417 1.40701 18.5506C1.57117 18.5506 1.73532 18.5506 1.90446 18.5506C1.90446 18.5126 1.90446 18.4746 1.90446 18.4355C1.82943 18.4368 1.7544 18.4381 1.67711 18.4395C1.57671 18.4406 1.47631 18.4417 1.37592 18.4427C1.3267 18.4436 1.27749 18.4446 1.22678 18.4456C0.836071 18.4486 0.441931 18.4417 0.132295 18.1979C0.0108834 17.9824 -0.0227924 17.8098 0.0390234 17.5716C0.174314 17.4167 0.282192 17.3151 0.474291 17.2261C0.573437 17.2213 0.672798 17.2199 0.77208 17.2205C0.830593 17.2207 0.889107 17.2208 0.949393 17.221C1.01063 17.2215 1.07187 17.222 1.13496 17.2225C1.19668 17.2228 1.2584 17.223 1.32199 17.2233C1.4747 17.224 1.62739 17.2249 1.78009 17.2261C1.78009 17.1881 1.78009 17.1501 1.78009 17.1109C1.65697 17.0919 1.53386 17.0729 1.40701 17.0533C1.40701 15.8941 1.40701 14.7348 1.40701 13.5404C1.96664 13.5404 1.96664 13.5404 2.10994 13.614C2.15828 13.6613 2.15828 13.6613 2.20759 13.7096C2.41696 13.9077 2.58173 13.9533 2.87992 13.9615C3.30975 13.9563 3.58108 13.8304 3.88259 13.5512C4.13216 13.2144 4.26475 12.9154 4.20516 12.5038C4.11992 12.0998 3.87681 11.8739 3.52116 11.64C3.22735 11.4749 2.92217 11.4817 2.58845 11.5248C2.3442 11.6228 2.15402 11.7544 1.96664 11.9279C1.78196 11.9279 1.59728 11.9279 1.40701 11.9279C1.40701 10.7877 1.40701 9.64739 1.40701 8.47258C1.59168 8.45357 1.77636 8.43457 1.96664 8.41499C1.96664 8.37698 1.96664 8.33897 1.96664 8.29981C1.93124 8.30041 1.89585 8.30102 1.85938 8.30164C1.69694 8.30405 1.53449 8.30554 1.37203 8.30701C1.28853 8.30846 1.28853 8.30846 1.20334 8.30993C0.808148 8.31262 0.44739 8.31353 0.136181 8.06226C0.00991266 7.84708 -0.0232104 7.67573 0.0390234 7.43598C0.174314 7.281 0.282192 7.1794 0.474291 7.09044C0.653603 7.0863 0.831359 7.08509 1.0106 7.08684C1.06046 7.0871 1.11032 7.08736 1.16168 7.08763C1.28491 7.08831 1.40814 7.08934 1.53137 7.09044C1.53137 7.05243 1.53137 7.01443 1.53137 6.97527C1.49033 6.95626 1.44929 6.93726 1.40701 6.91768C1.39907 6.47926 1.39366 6.04085 1.38993 5.60238C1.38837 5.45347 1.38626 5.30457 1.38355 5.15567C1.37975 4.94065 1.37801 4.72568 1.37665 4.51064C1.37504 4.44492 1.37344 4.37921 1.37178 4.3115C1.37152 3.59042 1.66619 3.00468 2.20346 2.49097C2.66834 2.08728 3.19168 1.87875 3.81652 1.79226C3.87737 1.78315 3.93822 1.77403 4.00091 1.76464C4.66106 1.66861 5.3243 1.59096 5.98705 1.51206C6.91103 1.40189 7.83357 1.2829 8.75603 1.16238C8.83167 1.1525 8.90732 1.14262 8.98525 1.13245C9.28825 1.09288 9.59124 1.0533 9.89423 1.01368C10.3712 0.951339 10.8483 0.88948 11.3254 0.828092C11.3858 0.820308 11.4463 0.812523 11.5086 0.804503C11.7349 0.775373 11.9613 0.746249 12.1876 0.717246C13.297 0.57508 14.4041 0.42023 15.5105 0.258951C15.6395 0.240146 15.7686 0.221354 15.8977 0.202594C16.0127 0.185894 16.1276 0.169152 16.2425 0.152406C17.8499 -0.0764239 17.8499 -0.076424 18.5068 0.352533Z" fill="#1B5E20"/>
<path d="M19.6999 16.0563C19.7516 16.056 19.8033 16.0557 19.8566 16.0553C20.967 16.0674 21.9969 16.5251 22.7973 17.2261C23.6699 18.1376 24.0649 19.1677 23.9913 20.3756C23.9023 21.3158 23.4031 22.2228 22.6729 22.8698C22.6303 22.9104 22.5876 22.951 22.5437 22.9929C21.7499 23.7077 20.6143 24.0045 19.5259 23.9953C18.4553 23.9512 17.4679 23.4935 16.7035 22.8122C15.7231 21.8111 15.4466 20.7429 15.5076 19.4123C15.5848 18.5061 16.192 17.6652 16.8901 17.0533C17.7255 16.402 18.6115 16.0628 19.6999 16.0563Z" fill="#F7FAF8"/>
<path d="M8.84327 18.7549C8.93711 18.7548 8.93711 18.7548 9.03284 18.7547C9.23741 18.7549 9.44193 18.7567 9.64649 18.7585C9.78919 18.7589 9.9319 18.7593 10.0746 18.7595C10.4485 18.7604 10.8225 18.7626 11.1964 18.7652C11.5786 18.7676 11.9609 18.7686 12.3431 18.7698C13.0919 18.7722 13.8406 18.7761 14.5894 18.781C14.6334 18.9712 14.656 19.1202 14.6253 19.313C14.4376 20.6698 14.773 21.9356 15.6465 23.0426C15.8822 23.3218 16.1364 23.5591 16.4371 23.7782C16.4635 23.8015 16.4898 23.8248 16.517 23.8488C16.517 23.8868 16.517 23.9248 16.517 23.964C15.2047 23.9654 13.8924 23.9664 12.58 23.967C11.9707 23.9673 11.3615 23.9677 10.7522 23.9684C10.2213 23.9689 9.69045 23.9693 9.15959 23.9694C8.87832 23.9695 8.59706 23.9697 8.31579 23.9701C8.05137 23.9705 7.78695 23.9706 7.52253 23.9705C7.42519 23.9705 7.32786 23.9707 7.23052 23.9709C7.0982 23.9712 6.96589 23.9711 6.83358 23.9709C6.72224 23.971 6.72224 23.971 6.60865 23.9711C6.44368 23.964 6.44368 23.964 6.3815 23.9064C6.37436 23.8038 6.37157 23.7009 6.37049 23.598C6.36969 23.5321 6.36889 23.4661 6.36807 23.3981C6.36761 23.3261 6.36715 23.254 6.36668 23.1798C6.36618 23.106 6.36568 23.0321 6.36516 22.9561C6.36422 22.7991 6.36361 22.6422 6.36314 22.4852C6.36246 22.2857 6.36033 22.0862 6.35785 21.8868C6.35581 21.6951 6.35555 21.5034 6.35502 21.3118C6.35393 21.2409 6.35284 21.17 6.35172 21.097C6.35358 20.4045 6.54412 19.8625 7.06549 19.3569C7.57883 18.9141 8.15143 18.7449 8.84327 18.7549Z" fill="#1B5E20"/>
<path d="M15.6662 7.63011C15.7759 7.62995 15.7759 7.62995 15.8878 7.62978C15.9634 7.63115 16.0389 7.63252 16.1167 7.63394C16.1925 7.63331 16.2683 7.63268 16.3464 7.63203C16.971 7.63679 16.971 7.63679 17.2632 7.89669C17.3367 8.03279 17.3343 8.11677 17.3362 8.26864C17.337 8.32266 17.3378 8.37667 17.3386 8.43232C17.3392 8.49177 17.3398 8.55121 17.3403 8.61246C17.3416 8.70615 17.3416 8.70615 17.3428 8.80174C17.3502 9.41602 17.3538 10.0303 17.3568 10.6446C17.3588 11.0319 17.3626 11.419 17.3679 11.8062C17.3724 12.1416 17.3742 12.477 17.375 12.8124C17.3758 12.9551 17.3774 13.0978 17.3799 13.2404C17.3832 13.44 17.3834 13.6393 17.3828 13.8389C17.3845 13.898 17.3862 13.9571 17.388 14.018C17.3824 14.4096 17.3824 14.4096 17.2174 14.5608C17.0904 14.6355 16.9657 14.6942 16.8279 14.7498C16.735 14.7973 16.735 14.7973 16.6402 14.8458C16.5829 14.8747 16.5256 14.9036 16.4665 14.9333C15.9928 15.1872 15.6114 15.5224 15.2343 15.8867C15.0869 16.0167 15.0869 16.0167 14.9003 16.0743C14.8916 15.0206 14.885 13.9668 14.881 12.9131C14.8791 12.4238 14.8764 11.9345 14.8722 11.4453C14.8685 11.0188 14.8661 10.5924 14.8652 10.1659C14.8647 9.94011 14.8636 9.71433 14.8609 9.48852C14.8583 9.27594 14.8576 9.06342 14.8581 8.85083C14.858 8.73568 14.856 8.62054 14.8539 8.50541C14.8576 8.01394 14.8576 8.01394 14.9795 7.84378C15.1941 7.66908 15.3868 7.62994 15.6662 7.63011Z" fill="#F7FAF8"/>
<path d="M11.7932 10.5075C11.835 10.5073 11.8769 10.507 11.92 10.5067C12.0082 10.5065 12.0964 10.507 12.1846 10.5082C12.3194 10.5098 12.4539 10.5083 12.5887 10.5064C12.6746 10.5066 12.7605 10.507 12.8464 10.5075C12.9632 10.508 12.9632 10.508 13.0824 10.5085C13.2836 10.5458 13.2836 10.5458 13.4186 10.6568C13.5788 10.906 13.5667 11.1127 13.5635 11.3976C13.5638 11.4541 13.5642 11.5106 13.5645 11.5688C13.5653 11.7553 13.5643 11.9417 13.5632 12.1281C13.5632 12.2577 13.5633 12.3873 13.5634 12.5169C13.5635 12.7883 13.5627 13.0596 13.5613 13.331C13.5596 13.6793 13.5597 14.0275 13.5605 14.3758C13.561 14.6433 13.5605 14.9108 13.5597 15.1782C13.5594 15.3067 13.5594 15.4351 13.5596 15.5636C13.5598 15.7428 13.5588 15.922 13.5574 16.1012C13.5577 16.1546 13.558 16.2079 13.5583 16.2628C13.5577 16.3116 13.5571 16.3603 13.5564 16.4106C13.5563 16.4529 13.5561 16.4953 13.556 16.5389C13.5252 16.6839 13.4723 16.7349 13.3458 16.823C13.1871 16.8408 13.0439 16.8486 12.8852 16.848C12.8404 16.8483 12.7956 16.8486 12.7494 16.8489C12.6547 16.8492 12.56 16.8492 12.4652 16.8487C12.3203 16.8482 12.1755 16.8498 12.0305 16.8517C11.9384 16.8518 11.8464 16.8517 11.7543 16.8516C11.711 16.8522 11.6677 16.8528 11.623 16.8535C11.4462 16.8512 11.3267 16.8489 11.1892 16.7404C11.063 16.5128 11.0808 16.2947 11.0821 16.0424C11.0817 15.9867 11.0813 15.9309 11.0808 15.8735C11.0797 15.6891 11.0799 15.5048 11.0803 15.3205C11.08 15.1924 11.0797 15.0643 11.0793 14.9362C11.0787 14.6677 11.0789 14.3991 11.0795 14.1306C11.0802 13.7864 11.079 13.4422 11.0772 13.098C11.076 12.8335 11.076 12.5689 11.0764 12.3044C11.0764 12.1775 11.076 12.0506 11.0753 11.9237C11.0743 11.7462 11.075 11.5688 11.0761 11.3914C11.0755 11.339 11.0749 11.2865 11.0742 11.2325C11.0772 10.9948 11.087 10.8652 11.221 10.6572C11.4111 10.5003 11.5411 10.5086 11.7932 10.5075Z" fill="#F7FAF8"/>
<path d="M8.05261 13.2662C8.17525 13.2659 8.17525 13.2659 8.30036 13.2656C8.34265 13.2665 8.38493 13.2673 8.42849 13.2682C8.55756 13.2705 8.68623 13.2694 8.8153 13.2679C9.42598 13.2726 9.42598 13.2726 9.67027 13.4143C9.86868 13.6921 9.84481 13.9469 9.84056 14.2731C9.84071 14.3386 9.84086 14.4041 9.84101 14.4716C9.84095 14.6099 9.84012 14.7482 9.83857 14.8865C9.83644 15.0984 9.83729 15.3101 9.83849 15.5219C9.83807 15.6564 9.83746 15.7908 9.83667 15.9252C9.83698 15.9886 9.83729 16.052 9.83761 16.1173C9.83613 16.2058 9.83613 16.2058 9.83462 16.2961C9.83424 16.348 9.83385 16.3998 9.83346 16.4532C9.79104 16.638 9.7113 16.7075 9.55273 16.823C9.34578 16.8528 9.34578 16.8528 9.10192 16.8536C9.05869 16.8538 9.01547 16.854 8.97093 16.8542C8.87979 16.8544 8.78864 16.854 8.6975 16.853C8.55825 16.8518 8.4192 16.853 8.27996 16.8545C8.19122 16.8543 8.10248 16.854 8.01375 16.8536C7.93327 16.8533 7.8528 16.8531 7.76988 16.8528C7.52416 16.8174 7.46695 16.7695 7.31421 16.5926C7.28221 16.4557 7.28221 16.4557 7.28104 16.3023C7.28006 16.2447 7.27907 16.187 7.27806 16.1276C7.27836 16.0656 7.27867 16.0036 7.27899 15.9398C7.2786 15.8758 7.27822 15.8117 7.27782 15.7457C7.27738 15.6103 7.27758 15.4748 7.27837 15.3394C7.27923 15.1325 7.27711 14.9257 7.27474 14.7187C7.27468 14.5871 7.2748 14.4554 7.2751 14.3237C7.27428 14.262 7.27346 14.2002 7.27261 14.1366C7.27905 13.6567 7.27905 13.6567 7.44539 13.4438C7.66459 13.2807 7.77369 13.2663 8.05261 13.2662Z" fill="#F7FAF8"/>
<path d="M3.57217 6.5492C3.87205 6.72739 4.07945 6.96766 4.23236 7.26321C4.32975 7.74426 4.25379 8.10562 3.97198 8.51577C3.66545 8.79966 3.33838 8.92173 2.91101 8.94769C2.55297 8.94337 2.23026 8.81238 1.96664 8.58776C1.96664 8.54975 1.96664 8.51174 1.96664 8.47258C1.88456 8.45358 1.80248 8.43457 1.71791 8.41499C1.79999 8.41499 1.88207 8.41499 1.96664 8.41499C1.96664 8.37698 1.96664 8.33897 1.96664 8.29981C1.93124 8.30042 1.89585 8.30102 1.85938 8.30164C1.69694 8.30405 1.53449 8.30554 1.37203 8.30701C1.28853 8.30846 1.28853 8.30846 1.20334 8.30994C0.808148 8.31262 0.44739 8.31353 0.136181 8.06226C0.00991266 7.84708 -0.0232104 7.67573 0.0390234 7.43598C0.174314 7.281 0.282192 7.1794 0.474291 7.09044C0.653603 7.0863 0.831359 7.08509 1.0106 7.08685C1.06046 7.08711 1.11032 7.08736 1.16168 7.08763C1.28491 7.08831 1.40814 7.08934 1.53137 7.09044C1.53137 7.05244 1.53137 7.01443 1.53137 6.97527C1.49033 6.93726 1.44929 6.89925 1.40701 6.86009C1.44308 6.85927 1.47915 6.85846 1.51631 6.85761C1.90347 6.83572 2.05863 6.75714 2.33972 6.51455C2.7504 6.30436 3.16778 6.36647 3.57217 6.5492Z" fill="#F7FAF8"/>
<path d="M3.4046 16.5962C3.77174 16.7415 4.04635 16.997 4.20129 17.3377C4.32288 17.7067 4.30979 17.979 4.13911 18.3275C3.94379 18.6596 3.71006 18.8701 3.34242 19.033C2.92499 19.1103 2.58318 19.118 2.21538 18.8962C2.17819 18.8558 2.141 18.8154 2.10268 18.7738C1.89601 18.6097 1.67177 18.6187 1.40703 18.6082C1.40703 18.5892 1.40703 18.5702 1.40703 18.5506C1.57119 18.5506 1.73535 18.5506 1.90448 18.5506C1.90448 18.5126 1.90448 18.4746 1.90448 18.4355C1.82945 18.4368 1.75443 18.4381 1.67713 18.4395C1.57673 18.4406 1.47634 18.4416 1.37594 18.4427C1.32672 18.4436 1.27751 18.4446 1.2268 18.4456C0.836094 18.4486 0.441954 18.4417 0.132318 18.1979C0.0109065 17.9824 -0.0227693 17.8098 0.0390465 17.5716C0.174337 17.4167 0.282215 17.3151 0.474314 17.2261C0.57346 17.2213 0.672821 17.2199 0.772103 17.2205C0.830616 17.2207 0.88913 17.2208 0.949416 17.221C1.01065 17.2215 1.07189 17.222 1.13499 17.2225C1.22757 17.2229 1.22757 17.2229 1.32202 17.2233C1.47472 17.224 1.62742 17.2249 1.78012 17.2261C1.78012 17.1881 1.78012 17.1501 1.78012 17.1109C1.59544 17.0824 1.59544 17.0824 1.40703 17.0533C1.40703 17.0343 1.40703 17.0153 1.40703 16.9957C1.4431 16.9949 1.47917 16.9941 1.51633 16.9933C1.9016 16.9715 2.06227 16.8952 2.33975 16.6502C2.6707 16.4664 3.04427 16.491 3.4046 16.5962Z" fill="#F7FAF8"/>
<path d="M19.7974 15.6933C19.8479 15.693 19.8985 15.6927 19.9505 15.6923C21.0357 15.7049 22.0423 16.1838 22.8246 16.9173C23.6774 17.8709 24.0635 18.9488 23.9915 20.2125C23.9045 21.1963 23.4166 22.1452 22.703 22.8222C22.6613 22.8647 22.6197 22.9072 22.5767 22.951C21.8009 23.6988 20.691 24.0094 19.6273 23.9998C18.581 23.9537 17.616 23.4747 16.869 22.762C15.9108 21.7145 15.6406 20.5968 15.7001 19.2046C15.7756 18.2565 16.3691 17.3767 17.0513 16.7365C17.8677 16.055 18.7337 15.7001 19.7974 15.6933ZM17.1702 17.8503C16.5527 18.6911 16.4588 19.5632 16.5993 20.5777C16.7945 21.4525 17.3576 22.1801 18.1032 22.6695C18.9697 23.1595 19.8204 23.2464 20.7758 22.9927C21.6229 22.7465 22.2445 22.2378 22.703 21.4891C23.1716 20.6322 23.2395 19.752 23.0088 18.8042C22.7376 17.9397 22.1055 17.2745 21.3053 16.857C19.8098 16.1802 18.2128 16.5932 17.1702 17.8503Z" fill="#1B5E20"/>
<path fill-rule="evenodd" clip-rule="evenodd" d="M20.0192 17.5385C20.0192 17.4429 19.9417 17.3654 19.8461 17.3654C19.7506 17.3654 19.6731 17.4429 19.6731 17.5385V17.8329C19.303 17.8588 18.965 17.967 18.7051 18.135C18.407 18.3278 18.1923 18.6145 18.1923 18.9573C18.1923 19.1116 18.2219 19.2584 18.2929 19.3905C18.3643 19.5233 18.4724 19.6313 18.6139 19.7148C18.8604 19.8603 19.2118 19.934 19.6731 19.9483V21.5134C19.3239 21.4899 19.017 21.3963 18.7921 21.263C18.5271 21.1059 18.4038 20.9136 18.4038 20.735C18.4038 20.6394 18.3264 20.562 18.2308 20.562C18.1352 20.562 18.0577 20.6394 18.0577 20.735C18.0577 21.0851 18.2961 21.3714 18.6157 21.5608C18.8991 21.7288 19.2686 21.8363 19.6731 21.8603V22.1538C19.6731 22.2494 19.7506 22.3269 19.8461 22.3269C19.9417 22.3269 20.0192 22.2494 20.0192 22.1538V21.862C20.414 21.8461 20.7828 21.7739 21.069 21.6232C21.4063 21.4457 21.6346 21.1536 21.6346 20.735C21.6346 20.5412 21.5963 20.3658 21.5121 20.2133C21.4274 20.0601 21.3019 19.9402 21.1436 19.8497C20.8673 19.6919 20.486 19.6207 20.0192 19.6071V18.1801C20.3283 18.2053 20.5997 18.2967 20.7992 18.4257C21.037 18.5795 21.1538 18.7713 21.1538 18.9573C21.1538 19.0528 21.2313 19.1303 21.3269 19.1303C21.4225 19.1303 21.5 19.0528 21.5 18.9573C21.5 18.6145 21.2853 18.3278 20.9872 18.135C20.7273 17.967 20.3893 17.8588 20.0192 17.8329V17.5385ZM19.6731 18.1801C19.364 18.2053 19.0926 18.2967 18.893 18.4257C18.6552 18.5795 18.5385 18.7713 18.5385 18.9573C18.5385 19.0673 18.5594 19.1552 18.5977 19.2265C18.6357 19.2971 18.6959 19.3612 18.7899 19.4167C18.9625 19.5186 19.2428 19.5876 19.6731 19.6019V18.1801ZM20.0192 19.9535V21.5155C20.3781 21.4997 20.6858 21.4338 20.9078 21.3169C21.1551 21.1867 21.2885 21.0003 21.2885 20.735C21.2885 20.587 21.2594 20.4718 21.2091 20.3807C21.1591 20.2903 21.0827 20.2136 20.9718 20.1503C20.7688 20.0343 20.4576 19.9671 20.0192 19.9535Z" fill="#1B5E20"/>
<path d="M0.967878 17.2475C1.0572 17.2473 1.0572 17.2473 1.14833 17.2471C1.27398 17.2471 1.39963 17.2479 1.52526 17.2493C1.71731 17.2513 1.90917 17.2505 2.10123 17.2494C2.22348 17.2498 2.34574 17.2503 2.468 17.2511C2.52526 17.2508 2.58253 17.2505 2.64153 17.2502C2.90467 17.2547 3.0486 17.2621 3.27611 17.3937C3.42921 17.5463 3.45548 17.608 3.4901 17.8164C3.45165 18.0834 3.37527 18.1428 3.15682 18.3057C2.92 18.4341 2.68934 18.425 2.42087 18.4197C2.36426 18.4198 2.30765 18.4198 2.24932 18.4199C2.13027 18.4196 2.01122 18.4185 1.89218 18.4166C1.71024 18.4139 1.52852 18.4142 1.34655 18.415C1.23053 18.4144 1.1145 18.4135 0.998483 18.4125C0.917249 18.4127 0.917249 18.4127 0.834375 18.4128C0.578784 18.4073 0.444624 18.3969 0.223921 18.2677C0.0342693 18.0819 0.0265793 17.9495 0.00650024 17.6965C0.126082 17.2378 0.550645 17.2419 0.967878 17.2475Z" fill="#1B5E20"/>
<path d="M0.967842 12.1796C1.05717 12.1794 1.05717 12.1794 1.1483 12.1792C1.27394 12.1793 1.39959 12.18 1.52522 12.1815C1.71727 12.1835 1.90914 12.1827 2.10119 12.1816C2.22345 12.182 2.3457 12.1825 2.46796 12.1832C2.52523 12.183 2.58249 12.1827 2.64149 12.1824C2.90463 12.1868 3.04857 12.1943 3.27607 12.3259C3.41814 12.4675 3.4541 12.5283 3.48229 12.7198C3.44982 12.9804 3.34442 13.0663 3.14807 13.2525C3.00735 13.3176 2.92545 13.319 2.76907 13.3221C2.71656 13.3232 2.66404 13.3243 2.60993 13.3254C2.36963 13.3288 2.12935 13.3316 1.88904 13.3334C1.76231 13.3346 1.6356 13.3366 1.50891 13.3393C1.32618 13.3431 1.14357 13.3447 0.960798 13.3458C0.904307 13.3474 0.847816 13.349 0.789613 13.3507C0.405431 13.3495 0.405431 13.3495 0.244459 13.2351C0.0996415 13.079 -0.00448256 12.9394 0.000148569 12.7306C0.0912794 12.1988 0.473149 12.173 0.967842 12.1796Z" fill="#1B5E20"/>
<path d="M0.967878 7.11182C1.0572 7.11161 1.0572 7.11161 1.14833 7.1114C1.27398 7.11146 1.39963 7.11223 1.52526 7.11366C1.71731 7.11564 1.90917 7.11485 2.10123 7.11373C2.22348 7.11413 2.34574 7.11469 2.468 7.11542C2.52526 7.11513 2.58253 7.11485 2.64153 7.11455C2.90467 7.11902 3.0486 7.12645 3.27611 7.25806C3.42146 7.40296 3.45561 7.45816 3.47455 7.65554C3.45685 7.86454 3.41064 7.96252 3.27246 8.12705C3.09723 8.22579 2.96459 8.25697 2.7607 8.25896C2.70944 8.25969 2.65817 8.26043 2.60535 8.26119C2.55049 8.26131 2.49562 8.26144 2.43909 8.26158C2.38221 8.26196 2.32534 8.26234 2.26673 8.26274C2.14658 8.26332 2.02642 8.26359 1.90626 8.26357C1.72269 8.26382 1.53921 8.26592 1.35566 8.2681C1.23879 8.26844 1.12191 8.26867 1.00504 8.26877C0.9503 8.2696 0.895559 8.27043 0.83916 8.27128C0.58102 8.2695 0.446861 8.26241 0.223512 8.13259C0.034721 7.94622 0.0265756 7.81379 0.00650024 7.56083C0.126082 7.10213 0.550645 7.10626 0.967878 7.11182Z" fill="#1B5E20"/>
<path d="M3.41454 11.5176C3.77258 11.7118 4.05248 11.9792 4.22848 12.3274C4.32305 12.7566 4.27797 13.0228 4.05335 13.4059C3.85232 13.6849 3.56905 13.9238 3.21026 14.0011C2.83385 14.0334 2.53924 14.0283 2.21537 13.8284C2.15958 13.7678 2.15958 13.7678 2.10266 13.706C1.89599 13.5419 1.67176 13.5509 1.40701 13.5404C1.40701 13.5214 1.40701 13.5024 1.40701 13.4828C1.57117 13.4638 1.73533 13.4448 1.90446 13.4252C1.19653 13.3967 1.19653 13.3967 0.474298 13.3676C0.474298 13.3486 0.474298 13.3296 0.474298 13.3101C0.5499 13.3095 0.625501 13.309 0.703393 13.3084C0.984436 13.3061 1.26544 13.3023 1.54645 13.2981C1.66797 13.2965 1.7895 13.2953 1.91104 13.2945C2.08595 13.2932 2.26078 13.2905 2.43567 13.2876C2.51691 13.2875 2.51691 13.2875 2.5998 13.2873C2.85589 13.2816 2.99089 13.2717 3.21204 13.1423C3.35793 12.9993 3.39204 12.94 3.42013 12.745C3.41224 12.5553 3.41224 12.5553 3.27835 12.4085C3.0096 12.2199 2.79954 12.2314 2.47065 12.2327C2.41174 12.2319 2.35284 12.231 2.29214 12.2301C2.10461 12.2276 1.91713 12.2271 1.72958 12.2267C1.60218 12.2253 1.47478 12.2239 1.34738 12.2223C1.03562 12.2187 0.7239 12.2168 0.412117 12.2159C0.412117 12.1969 0.412117 12.1779 0.412117 12.1583C1.05849 12.1298 1.05849 12.1298 1.71792 12.1007C1.71792 12.0817 1.71792 12.0627 1.71792 12.0431C1.56402 12.0146 1.56402 12.0146 1.40701 11.9855C1.40701 11.9665 1.40701 11.9475 1.40701 11.9279C1.44308 11.9271 1.47915 11.9263 1.51632 11.9254C1.90159 11.9037 2.06225 11.8274 2.33973 11.5824C2.65859 11.4006 3.06785 11.3947 3.41454 11.5176Z" fill="#F7FAF8"/>
</svg>
